HIERARCHY
ROOT hip
{
  OFFSET 0 0 0
  CHANNELS 6 Xposition Yposition Zposition Zrotation Yrotation Xrotation
  JOINT abdomen
  {
    OFFSET 0 20.6881 -0.73152
    CHANNELS 3 Zrotation Xrotation Yrotation
    JOINT chest
    {
      OFFSET 0 11.7043 -0.48768
      CHANNELS 3 Zrotation Xrotation Yrotation
      JOINT neck
      {
        OFFSET 0 22.1894 -2.19456
        CHANNELS 3 Zrotation Xrotation Yrotation
        JOINT head
        {
          OFFSET -0.24384 7.07133 1.2192
          CHANNELS 3 Zrotation Xrotation Yrotation
          JOINT leftEye
          {
            OFFSET 4.14528 8.04674 8.04672
            CHANNELS 3 Zrotation Xrotation Yrotation
            End Site
            {
              OFFSET 1 0 0
            }
          }
          JOINT rightEye
          {
            OFFSET -3.6576 8.04674 8.04672
            CHANNELS 3 Zrotation Xrotation Yrotation
            End Site
            {
              OFFSET 1 0 0
            }
          }
        }
      }
      JOINT rCollar
      {
        OFFSET -2.68224 19.2634 -4.8768
        CHANNELS 3 Zrotation Xrotation Yrotation
        JOINT rShldr
        {
          OFFSET -8.77824 -1.95073 1.46304
          CHANNELS 3 Zrotation Xrotation Yrotation
          JOINT rForeArm
          {
            OFFSET -28.1742 -1.7115 0.48768
            CHANNELS 3 Zrotation Xrotation Yrotation
            JOINT rHand
            {
              OFFSET -22.5879 0.773209 7.07136
              CHANNELS 3 Zrotation Xrotation Yrotation
              JOINT rThumb1
              {
                OFFSET -1.2192 -0.487915 3.41376
                CHANNELS 3 Zrotation Xrotation Yrotation
                JOINT rThumb2
                {
                  OFFSET -3.37035 -0.52449 3.41376
                  CHANNELS 3 Zrotation Xrotation Yrotation
                  End Site
                  {
                    OFFSET -1.78271 -1.18214 1.43049
                  }
                }
              }
              JOINT rIndex1
              {
                OFFSET -7.75947 0.938293 5.60832
                CHANNELS 3 Zrotation Xrotation Yrotation
                JOINT rIndex2
                {
                  OFFSET -2.54057 -0.884171 1.56538
                  CHANNELS 3 Zrotation Xrotation Yrotation
                  End Site
                  {
                    OFFSET -1.62519 -0.234802 1.16502
                  }
                }
              }
              JOINT rMid1
              {
                OFFSET -8.24714 1.18213 3.41376
                CHANNELS 3 Zrotation Xrotation Yrotation
                JOINT rMid2
                {
                  OFFSET -3.10165 -0.590103 1.0647
                  CHANNELS 3 Zrotation Xrotation Yrotation
                  End Site
                  {
                    OFFSET -2.48547 -0.328903 0.83742
                  }
                }
              }
              JOINT rRing1
              {
                OFFSET -8.82822 0.546677 1.51678
                CHANNELS 3 Zrotation Xrotation Yrotation
                JOINT rRing2
                {
                  OFFSET -2.60934 -0.819778 -0.0198488
                  CHANNELS 3 Zrotation Xrotation Yrotation
                  End Site
                  {
                    OFFSET -2.33842 -0.294052 0.168128
                  }
                }
              }
              JOINT rPinky1
              {
                OFFSET -8.27202 -0.0477905 -0.4584
                CHANNELS 3 Zrotation Xrotation Yrotation
                JOINT rPinky2
                {
                  OFFSET -1.82734 -0.647385 -0.700984
                  CHANNELS 3 Zrotation Xrotation Yrotation
                  End Site
                  {
                    OFFSET -1.69225 -0.51767 -0.607171
                  }
                }
              }
            }
          }
        }
      }
      JOINT lCollar
      {
        OFFSET 2.68224 19.2634 -4.8768
        CHANNELS 3 Zrotation Xrotation Yrotation
        JOINT lShldr
        {
          OFFSET 8.77824 -1.95073 1.46304
          CHANNELS 3 Zrotation Xrotation Yrotation
          JOINT lForeArm
          {
            OFFSET 28.1742 -1.7115 0.48768
            CHANNELS 3 Zrotation Xrotation Yrotation
            JOINT lHand
            {
              OFFSET 22.5879 0.773209 7.07136
              CHANNELS 3 Zrotation Xrotation Yrotation
              JOINT lThumb1
              {
                OFFSET 1.2192 -0.487915 3.41376
                CHANNELS 3 Zrotation Xrotation Yrotation
                JOINT lThumb2
                {
                  OFFSET 3.37035 -0.52449 3.41376
                  CHANNELS 3 Zrotation Xrotation Yrotation
                  End Site
                  {
                    OFFSET 1.78271 -1.18214 1.43049
                  }
                }
              }
              JOINT lIndex1
              {
                OFFSET 7.75947 0.938293 5.60832
                CHANNELS 3 Zrotation Xrotation Yrotation
                JOINT lIndex2
                {
                  OFFSET 2.54057 -0.884171 1.56538
                  CHANNELS 3 Zrotation Xrotation Yrotation
                  End Site
                  {
                    OFFSET 1.62519 -0.234802 1.16502
                  }
                }
              }
              JOINT lMid1
              {
                OFFSET 8.24714 1.18213 3.41376
                CHANNELS 3 Zrotation Xrotation Yrotation
                JOINT lMid2
                {
                  OFFSET 3.10165 -0.590103 1.0647
                  CHANNELS 3 Zrotation Xrotation Yrotation
                  End Site
                  {
                    OFFSET 2.48547 -0.328903 0.83742
                  }
                }
              }
              JOINT lRing1
              {
                OFFSET 8.82822 0.546677 1.51678
                CHANNELS 3 Zrotation Xrotation Yrotation
                JOINT lRing2
                {
                  OFFSET 2.60934 -0.819778 -0.0198488
                  CHANNELS 3 Zrotation Xrotation Yrotation
                  End Site
                  {
                    OFFSET 2.33842 -0.294052 0.168128
                  }
                }
              }
              JOINT lPinky1
              {
                OFFSET 8.27202 -0.0477905 -0.4584
                CHANNELS 3 Zrotation Xrotation Yrotation
                JOINT lPinky2
                {
                  OFFSET 1.82734 -0.647385 -0.700984
                  CHANNELS 3 Zrotation Xrotation Yrotation
                  End Site
                  {
                    OFFSET 1.69225 -0.51767 -0.607171
                  }
                }
              }
            }
          }
        }
      }
    }
  }
  JOINT rButtock
  {
    OFFSET -8.77824 4.35084 1.2192
    CHANNELS 3 Zrotation Xrotation Yrotation
    JOINT rThigh
    {
      OFFSET 0 -1.70687 -2.19456
      CHANNELS 3 Zrotation Xrotation Yrotation
      JOINT rShin
      {
        OFFSET 0 -36.8199 0.73152
        CHANNELS 3 Zrotation Xrotation Yrotation
        JOINT rFoot
        {
          OFFSET 0.73152 -45.1104 -5.12064
          CHANNELS 3 Zrotation Xrotation Yrotation
          End Site
          {
            OFFSET -1.1221 -3.69964 12.103
          }
        }
      }
    }
  }
  JOINT lButtock
  {
    OFFSET 8.77824 4.35084 1.2192
    CHANNELS 3 Zrotation Xrotation Yrotation
    JOINT lThigh
    {
      OFFSET 0 -1.70687 -2.19456
      CHANNELS 3 Zrotation Xrotation Yrotation
      JOINT lShin
      {
        OFFSET 0 -36.8199 0.73152
        CHANNELS 3 Zrotation Xrotation Yrotation
        JOINT lFoot
        {
          OFFSET -0.73152 -45.1104 -5.12064
          CHANNELS 3 Zrotation Xrotation Yrotation
          End Site
          {
            OFFSET 1.1221 -3.69964 12.103
          }
        }
      }
    }
  }
}
MOTION
Frames:	4
Frame Time:	0.03333
-23.407606035470963 52.50040292739868 38.412996754050255 -17.061242225896155 -30.715500716425325 14.912056609207236 9.075658255884049 11.106381071608267 3.845906632470814 1.9810114182843963 -7.88543546753315 1.7000608715643248 1.0287289418414705 12.081277023732635 9.145998959051424 4.289003628931167 -23.318486100024266 18.415484323202094 -0.41207718541663746 0.15836572659126769 -0.2050265240919668 0.2693298336209411 0.2032081596482228 0.19903780889161432 -0.056036152611253984 -0.2309790951636864 0.027737925157844078 105.31662658615089 46.8945864449739 -54.760969953590944 -27.72509875627388 -43.965012442023294 91.4311388714601 -8.169034313382188 -59.61775696294152 -14.36333116411946 0.3395527160251347 0.32040033198389 0.013957785053611955 -0.10443807472113778 0.025903519107699804 -0.21157796950669164 0.11503788798276289 -0.23275203618140716 -0.2642957707592301 8.435983719355674 5.239260100511538 0.7717706085198324 0.046509319379555575 0.044649106686932026 0.31455398353905 2.7682440809812565 0.9683633030700747 -0.3655014050948065 -0.10925138373443982 0.20347069504444518 0.15579149232611333 10.249248679832318 1.2272696276873416 0.3625730148490164 0.007702318949658754 -0.2182423665067729 -0.3060036805956783 2.311579127178085 -1.1641890954425715 -0.21706234460594742 0.25233274778880566 -0.41034068986144107 0.1573547518724 -50.23549493031018 -0.04284577666348999 -51.10863557795335 10.67437843679413 -3.7705094548835127 -18.307406824870398 4.450424050907017 50.748629967180314 -11.233074250522833 -0.08402514725205554 -0.30623009069449364 -0.41518067930118846 0.37306317155795105 0.669517554002864 0.3137673645261614 0.11425903297396987 -0.6226683259903945 -0.041400658045503386 -7.389185512064935 4.869808765003201 -0.6596272800021268 -0.19861064192401084 -0.36883581807024207 -0.44890265725486367 -2.502293590173885 0.9952711534704572 -0.004694447713487943 -0.214130219100455 -0.16064914420816756 0.2968398879266219 -10.14152464379017 0.4816980239980915 0.297390918773998 0.13803550844416604 0.3901060410018667 0.41117077128900914 -1.9814839819975967 -1.1850109271273555 0.1572679871255997 -0.1399280044527885 0.22165650059642725 -0.426617003973155 -11.962782633143023 5.079991188124242 -4.765065252760117 0.622278418238322 37.11151183637329 1.8160535986487143 -6.9447122324868245 -16.881837062062015 -28.049923770179472 -0.44808970466107345 0.0309835390039629 0.010346989540628848 79.40885846045711 -53.254462449117916 66.76056389126575 3.112302480702778 73.60928336449675 -2.785436947782648 -0.06672016929874065 1.4165545534341992 -3.9386174858304517
-24.58458747714758 52.38986611366272 37.88262624293566 -16.987366899833297 -30.748490530116488 14.89969908945139 9.01541257230995 11.162687443578559 3.869834492680661 1.9719981299009184 -7.877845419817973 1.7166304836039528 1.059457322587123 12.090592547986887 9.206114015257645 4.271946085252706 -23.451934336027975 18.5175239343075 -0.41325891486475547 0.16354813262401485 -0.18749534948324814 0.2715316091329182 0.21869529342610936 0.18833060691354664 -0.0499143821242185 -0.2196134469413736 0.0485002061308019 105.14441019641819 46.80516219326551 -54.54170380576061 -27.73453978525413 -43.970223876360016 91.37571871653462 -8.146716670269171 -59.43194849676049 -14.330237190043455 0.3251080398693213 0.3238042207897893 0.007951487452231993 -0.10677474646922261 0.021285030568301805 -0.2109757389209669 0.11383694862760424 -0.22649472912802923 -0.2563744588693078 8.473278259771236 5.217640417354332 0.7713454292439991 0.03514175016653873 0.04329149986768621 0.28033068037246645 2.763056979193455 0.9478994159864818 -0.36966099029934424 -0.10806186360179978 0.19670187085525676 0.1624547687482839 10.263295817634097 1.2448195853162778 0.37607192324819455 -0.00826975825929872 -0.20434805418767446 -0.31579134167630657 2.307886342714635 -1.1556070694721563 -0.22063826880156642 0.259732030454898 -0.40221810083441495 0.14736666742831417 -50.02164853758625 0.02236161245579862 -50.912919922381214 10.703099382254033 -3.778135361091832 -18.398535208776707 4.3562528177254665 50.56052314234358 -11.15410701843373 -0.08574699525313344 -0.3094769385103356 -0.423371410137356 0.37174024929308425 0.6683158675957649 0.307467795677294 0.13590283523668245 -0.629995731587643 -0.04684367848376886 -7.415376726210995 4.863122863579405 -0.6567747688891473 -0.1743018919462297 -0.3692677208135396 -0.4512622741696915 -2.483621987417186 0.9918377027520565 -0.005343529128050718 -0.20982666631481806 -0.16971707410500575 0.30549661909108417 -10.150926399182692 0.4855983821792861 0.3013436773127313 0.1555954979134457 0.38878781449205424 0.400321442679267 -1.9878825885894291 -1.1847357985698508 0.1465167357634707 -0.1378793745886078 0.2130376556375174 -0.4160644150663382 -12.079313344346257 4.9164696292049666 -4.650869185592558 0.6379366269105762 37.402450574259156 1.8112178247163453 -6.934212951072046 -16.971968238349504 -27.94151842276761 -0.4309664204118515 0.00827081213614331 0.019918005558520777 79.31416471780405 -53.32002201986628 66.68121075348854 3.117704733449435 73.65219744305193 -2.8066929233665507 -0.08390876723190087 1.462587680562558 -3.780022627736871
-25.819156877696514 52.2854745388031 37.36146427690983 -16.90133383704782 -30.792179835142473 14.87218025728541 8.937382783684432 11.229409000259475 3.8982583249116693 1.9599168059196352 -7.870889725921962 1.733958673528275 1.0869652691391147 12.100071996781217 9.261837259827548 4.2587399144924865 -23.588876213792144 18.61842802646339 -0.41359338069067453 0.16582472005174473 -0.16886013882822037 0.27431896664451805 0.23508732054731685 0.1783451638316789 -0.045227164806297245 -0.20894020914617087 0.0693937548018709 104.9675219572932 46.72847624435919 -54.31982169547816 -27.742083729192412 -43.97251198973197 91.32020293896076 -8.136414183679854 -59.26433565452838 -14.307700127103352 0.30934812541145734 0.32647311720797184 0.001547331331698787 -0.1088694801103009 0.016617450044244343 -0.2117339966405441 0.11267378875629222 -0.21830832052094584 -0.24813276841862963 8.508122469822055 5.194988094971984 0.7716562028512346 0.022329595944064185 0.039217878997155405 0.2447855221580738 2.7584568467874515 0.9266156927590758 -0.3737048891748149 -0.10528528498248382 0.19121690878661915 0.1686805928984563 10.275672974183806 1.262719163253354 0.39055688684794043 -0.024047708685439737 -0.191124701232824 -0.32677215142757143 2.30398929290632 -1.1466692333346657 -0.22466509220411207 0.2675031849047858 -0.39396968691627254 0.13843043211641032 -49.8221796930652 0.07627656444294052 -50.72664700333663 10.735243960035406 -3.7895661095546713 -18.493659253347474 4.2683329151817695 50.37995343125595 -11.080563810319264 -0.08853179144379457 -0.31430091969421575 -0.42993463496035644 0.3687119141698298 0.6682248339807333 0.3006608718391416 0.15551540327325672 -0.6369646589751716 -0.05317120841955098 -7.442429397966123 4.855058544603736 -0.6532031135617596 -0.1513481341059027 -0.3692444554816792 -0.45409360102407337 -2.4647964919607497 0.9889886600945149 -0.008279870140921512 -0.20495385995054285 -0.18003748994089502 0.3142631135299427 -10.158822097863228 0.4884031353289283 0.30597454557 0.17257171965210083 0.38649137682704904 0.39148573921420926 -1.993545242298193 -1.1852775179483974 0.13636611416147973 -0.13680041814315733 0.20350420566006053 -0.4048097574180381 -12.20056115494503 4.726267643840329 -4.532000842145887 0.6489897939783609 37.72248591800927 1.8047724740173805 -6.923595848894084 -17.068991075509537 -27.826972735291914 -0.41260900635697284 -0.013238414055578875 0.03146305296825217 79.17731504759367 -53.389324534279815 66.56161414112162 3.1112931068094976 73.67124001045794 -2.818121964282098 -0.10322272793569864 1.5176688873504796 -3.614775592278521
-27.10727248340845 52.187252044677734 36.84651646763086 -16.80247709409564 -30.845192348385527 14.8282911692262 8.841249578663795 11.3068334633698 3.930851133857324 1.9451529251418294 -7.86473572547978 1.7518313575954942 1.111009882895087 12.11055804470448 9.312940735197584 4.2490512911548235 -23.729282705012803 18.717214759976578 -0.41279809053919114 0.1653019971368272 -0.1492926073514859 0.27769766912785293 0.2522542539742034 0.16961786293926867 -0.04173629781018604 -0.1987038900144374 0.0901664945019953 104.78567500083078 46.66508867376689 -54.09479769817751 -27.747891097534215 -43.972030461395484 91.26452323684681 -8.138686929126175 -59.11501405889356 -14.29633469232445 0.29245994908007195 0.3284831138146596 -0.005047643198771649 -0.11081245548575797 0.011864278712150157 -0.21392616719900084 0.11144606225298243 -0.20815033512125594 -0.23960570412669185 8.540762236318255 5.171780819719574 0.7729048468088776 0.008067520626842873 0.03274424704615847 0.20800047116591233 2.754315190829485 0.9045016746606901 -0.37744890005703974 -0.10086668619801448 0.18694558595612823 0.17439980911128417 10.286410031559067 1.2809952553684272 0.4060365501064223 -0.03924509303212967 -0.17860112250278248 -0.3385532672504914 2.2996751746718105 -1.1373818836107408 -0.22919516181027014 0.2757164873817261 -0.38589181428396885 0.1304499964014851 -49.636261943857455 0.11995775861928769 -50.55043836803406 10.7712672314917 -3.804766695552535 -18.5936668831748 4.186143541351714 50.20496056962564 -11.010969305318712 -0.09245594856537846 -0.32051185616643163 -0.4348162992262115 0.3640594347671404 0.66950677511058 0.2933191655333184 0.17288382728065868 -0.6435557915242339 -0.06027759336412612 -7.470230829209013 4.845864683094075 -0.6490034543567009 -0.12974387223518213 -0.3686378493060175 -0.45766728406387097 -2.446260852657216 0.9868405656005459 -0.013415532066536413 -0.19929259362395432 -0.19131071716600107 0.32307133615576167 -10.165414084185937 0.48998517789543256 0.3111253619778358 0.18903503687277032 0.38311384828247774 0.3842909886972471 -1.9986198594081008 -1.1864678918546838 0.12695880924025654 -0.1366866528047943 0.19311100562082834 -0.39311679372409364 -12.326074418680477 4.508455472529561 -4.407870264830545 0.6552257566905825 38.07399477345481 1.7965982316847562 -6.912772560380552 -17.17276213956954 -27.704749915189122 -0.3929905686265806 -0.03376270562464406 0.04490326442925055 78.99771522336819 -53.462762728235795 66.40118665789636 3.0929943896927985 73.66655450068731 -2.819352892436581 -0.124226947015663 1.5819691419706259 -3.4437273783373037
